<?xml version="1.0" encoding="utf-8"?>
<!-- Generator: Adobe Illustrator 24.0.1, SVG Export Plug-In . SVG Version: 6.00 Build 0)  -->
<svg version="1.1" id="Laag_1" xmlns="http://www.w3.org/2000/svg" xmlns:xlink="http://www.w3.org/1999/xlink" x="0px" y="0px"
	 viewBox="0 0 653.5 769" style="enable-background:new 0 0 653.5 769;" xml:space="preserve">
<style type="text/css">
	#cityInfoBox{fill:#D1ECF1;stroke:#BEE5EB;stroke-miterlimit:10;}
	#legendColor1 > rect{fill:#FFFFCC;}
	#legendColor2 > rect{fill:#FEE391;}
	#legendColor3 > rect{fill:#FEC44F;}
	#legendColor4 > rect{fill:#FE9929;}
	#legendColor5 > rect{fill:#D95F0E;}
	#legendColor6 > rect{fill:#993404;}
	#legendColor0 > rect{fill:#FFFFFF;}
	.st8{fill:none;}
	.st9{font-family:'MyriadPro-Regular';}
	.st10{font-size:14.8193px;}
	.st11{fill:#6FA0A9;}
	.st12{font-size:20.8193px;}
</style>
<rect x="15" y="15.5" id="cityInfoBox" width="193" height="79"/>
<g id="legendColor1">
	<rect x="15.5" y="140.3" width="49.2" height="23.1"/>
	<path d="M64.2,140.8v22.1H16v-22.1H64.2 M65.2,139.8H15v24.1h50.2V139.8L65.2,139.8z"/>
</g>
<g id="legendColor2">
	<rect x="15.5" y="170.1" width="49.2" height="23.1"/>
	<path d="M64.2,170.6v22.1H16v-22.1H64.2 M65.2,169.6H15v24.1h50.2V169.6L65.2,169.6z"/>
</g>
<g id="legendColor3">
	<rect x="15.5" y="199.9" width="49.2" height="23.1"/>
	<path d="M64.2,200.4v22.1H16v-22.1H64.2 M65.2,199.4H15v24.1h50.2V199.4L65.2,199.4z"/>
</g>
<g id="legendColor4">
	<rect x="15.5" y="229.8" width="49.2" height="23.1"/>
	<path d="M64.2,230.3v22.1H16v-22.1H64.2 M65.2,229.3H15v24.1h50.2V229.3L65.2,229.3z"/>
</g>
<g id="legendColor5">
	<rect x="15.5" y="259.6" width="49.2" height="23.1"/>
	<path d="M64.2,260.1v22.1H16v-22.1H64.2 M65.2,259.1H15v24.1h50.2V259.1L65.2,259.1z"/>
</g>
<g id="legendColor6">
	<rect x="15.5" y="289.4" width="49.2" height="23.1"/>
	<path d="M64.2,289.9V312H16v-22.1H64.2 M65.2,288.9H15V313h50.2V288.9L65.2,288.9z"/>
</g>
<g id="legendColor0">
	<rect x="15.5" y="110.5" width="49.2" height="23.1"/>
	<path d="M64.2,111v22.1H16V111H64.2 M65.2,110H15v24.1h50.2V110L65.2,110z"/>
</g>
<rect x="85.8" y="116.1" class="st8" width="112.2" height="11.9"/>
<text id="legendValue0" transform="matrix(1 0 0 1 85.8032 126.6078)" class="st9 st10">Geen meldingen</text>
<rect x="85.8" y="145.9" class="st8" width="112.2" height="11.9"/>
<text id="legendValue1" transform="matrix(1 0 0 1 85.8032 156.4233)" class="st9 st10">-</text>
<rect x="85.8" y="175.7" class="st8" width="112.2" height="11.9"/>
<text id="legendValue2" transform="matrix(1 0 0 1 85.8032 186.2392)" class="st9 st10">-</text>
<rect x="85.8" y="235.3" class="st8" width="112.2" height="11.9"/>
<text id="legendValue4" transform="matrix(1 0 0 1 85.8032 245.8705)" class="st9 st10">-</text>
<rect x="85.8" y="205.5" class="st8" width="112.2" height="11.9"/>
<text id="legendValue3" transform="matrix(1 0 0 1 85.8032 216.0548)" class="st9 st10">-</text>
<rect x="85.8" y="265.2" class="st8" width="112.2" height="11.9"/>
<text id="legendValue5" transform="matrix(1 0 0 1 85.8032 275.6862)" class="st9 st10">-</text>
<rect x="85.8" y="295.2" class="st8" width="112.2" height="11.9"/>
<text id="legendValue6" transform="matrix(1 0 0 1 85.8032 305.6862)" class="st9 st10">-</text>
<rect x="29.3" y="20.6" class="st8" width="169.2" height="17.9"/>
<text id="legendCityName" transform="matrix(1 0 0 1 34.8623 35.3348)" class="st11 st9 st12">Selecteer een stad</text>
<rect x="30.3" y="48.5" class="st8" width="56.2" height="11.9"/>
<text transform="matrix(1 0 0 1 30.3032 59.0013)" class="st11 st9 st10">Totaal:</text>
<rect x="91.3" y="48.5" class="st8" width="56.2" height="11.9"/>
<text id="legendCityTotal" transform="matrix(1 0 0 1 91.3032 59.0013)" class="st11 st9 st10">0</text>
<rect x="30.3" y="70.5" class="st8" width="56.2" height="11.9"/>
<text transform="matrix(1 0 0 1 30.3032 81.0013)" class="st11 st9 st10">1 op de:</text>
<rect x="91.3" y="70.5" class="st8" width="86.2" height="11.9"/>
<text id="legendCityRelative" transform="matrix(1 0 0 1 91.3032 81.0013)" class="st11 st9 st10">0</text>
</svg>
